#!OML:ASF F:\VICON\USERDATA\INSTALL\Justin_Nancy\Justin_Nancy.ASF
:FULLY-SPECIFIED
:DEGREES
211
root -9.32548 17.4458 -4.965 1.64949 -6.42463 -4.04424
lowerback 5.76147 1.78074 2.56807
upperback -0.0803983 2.64244 2.89461
thorax -3.33548 1.29381 1.32124
lowerneck -17.4982 -3.73354 -8.5648
upperneck 22.4443 -4.01252 4.83846
head 10.3543 -2.01271 2.58568
rclavicle -3.76945e-014 3.57812e-015
rhumerus -23.405 -7.31607 -81.2978
rradius 35.2596
rwrist 4.88225
rhand -13.7945 9.87397
rfingers 7.12502
rthumb 12.3273 -19.7426
lclavicle -3.76945e-014 3.57812e-015
lhumerus -32.3578 14.4836 85.1774
lradius 20.5337
lwrist -14.7767
lhand -15.5509 23.8614
lfingers 7.12502
lthumb 10.6334 53.5724
rfemur 6.32469 2.12701 29.505
rtibia 22.3624
rfoot -13.5654 -5.41181
rtoes -11.7656
lfemur -26.6949 -3.55371 -17.3118
ltibia 23.2417
lfoot -4.23904 4.47923
ltoes -5.70489
212
root -9.31092 17.4628 -4.81959 1.60912 -6.76819 -3.64795
lowerback 5.66904 1.91053 2.1138
upperback -0.16803 2.78023 2.75305
thorax -3.38914 1.36869 1.41865
lowerneck -17.4315 -3.71139 -8.52696
upperneck 22.663 -4.01526 4.87527
head 10.4208 -2.00957 2.59545
rclavicle 1.49089e-016 2.18663e-014
rhumerus -23.7974 -7.51408 -81.2942
rradius 35.3217
rwrist 5.06469
rhand -13.5158 8.80508
rfingers 7.12502
rthumb 12.596 -20.7952
lclavicle 1.49089e-016 2.18663e-014
lhumerus -32.4934 14.7743 84.9409
lradius 20.2971
lwrist -15.2635
lhand -16.1527 23.1186
lfingers 7.12502
lthumb 10.0529 52.8585
rfemur 6.17969 2.30794 28.9095
rtibia 23.5562
rfoot -13.323 -5.06535
rtoes -12.4954
lfemur -26.2651 -3.5297 -17.7992
ltibia 23.2088
lfoot -3.33036 3.65582
ltoes -6.34698
213
root -9.3017 17.4784 -4.68182 1.43926 -6.9933 -3.28615
lowerback 5.77988 2.02481 1.66082
upperback -0.128835 2.89988 2.60081
thorax -3.42633 1.43471 1.50101
lowerneck -17.8065 -3.72916 -8.34064
upperneck 22.9139 -4.06129 4.84508
head 10.5818 -2.01521 2.5465
rclavicle 2.94698e-014 3.57812e-015
rhumerus -23.7898 -8.23183 -81.324
rradius 34.8515
rwrist 5.27247
rhand -13.6066 8.62551
rfingers 7.12502
rthumb 12.5085 -20.9801
lclavicle 2.94698e-014 3.57812e-015
lhumerus -32.2064 14.8889 84.8043
lradius 19.9919
lwrist -15.5265
lhand -14.9233 24.7325
lfingers 7.12502
lthumb 11.2387 54.4114
rfemur 5.99064 2.51769 28.4406
rtibia 25.0592
rfoot -12.8259 -4.90793
rtoes -12.1454
lfemur -25.6761 -3.38624 -18.2582
ltibia 23.0314
lfoot -2.79261 2.14736
ltoes -3.42946
214
root -9.29081 17.4914 -4.53282 1.28621 -7.09061 -2.81204
lowerback 5.57533 2.09419 1.15574
upperback 0.0238964 2.94206 2.41992
thorax -3.16969 1.46383 1.60354
lowerneck -18.0933 -3.80076 -8.15593
upperneck 23.0752 -4.17178 4.74845
head 10.6973 -2.05846 2.46342
rclavicle 1.93815e-014 -5.56597e-015
rhumerus -23.5947 -8.91433 -81.3872
rradius 34.5886
rwrist 6.06305
rhand -13.4582 8.27797
rfingers 7.12502
rthumb 12.6515 -21.3189
lclavicle 1.93815e-014 -5.56597e-015
lhumerus -31.9406 14.9811 84.7401
lradius 19.9687
lwrist -15.6389
lhand -14.0961 25.9546
lfingers 7.12502
lthumb 12.0364 55.5885
rfemur 5.67075 2.39084 27.7662
rtibia 26.7583
rfoot -12.406 -4.60988
rtoes -12.4201
lfemur -25.0288 -2.89552 -18.9798
ltibia 22.8108
lfoot -2.28531 0.176733
ltoes 0.512661
215
root -9.27893 17.5037 -4.38524 1.19745 -7.21825 -2.41511
lowerback 5.50275 2.07998 0.708234
upperback -0.0816404 2.89259 2.31497
thorax -3.25349 1.44591 1.75024
lowerneck -17.7074 -3.8126 -8.4208
upperneck 23.1225 -4.20982 4.98704
head 10.6557 -2.07673 2.59269
rclavicle -7.03946e-014 -1.98785e-015
rhumerus -23.9369 -9.08449 -81.4513
rradius 34.335
rwrist 6.1243
rhand -13.6158 8.03619
rfingers 7.12502
rthumb 12.4995 -21.57
lclavicle -7.03946e-014 -1.98785e-015
lhumerus -32.2478 15.2539 84.4865
lradius 19.9447
lwrist -15.6344
lhand -14.5095 25.8121
lfingers 7.12502
lthumb 11.6378 55.4689
rfemur 5.1247 2.31487 27.1599
rtibia 28.5769
rfoot -11.8227 -4.28194
rtoes -13.2604
lfemur -24.3977 -2.66391 -19.5426
ltibia 22.6354
lfoot -1.74705 -0.596739
ltoes 2.24594
216
root -9.26399 17.5216 -4.24125 1.08862 -7.21783 -2.10326
lowerback 5.57913 2.04735 0.404818
upperback -0.259676 2.8329 2.23362
thorax -3.48938 1.42141 1.83494
lowerneck -17.2996 -3.79025 -8.67919
upperneck 23.1929 -4.1936 5.17858
head 10.6129 -2.07616 2.71237
rclavicle -2.17918e-014 5.56597e-015
rhumerus -24.4132 -9.49357 -81.4318
rradius 33.8799
rwrist 5.89814
rhand -13.5586 6.70755
rfingers 7.12502
rthumb 12.5547 -22.8952
lclavicle -2.17918e-014 5.56597e-015
lhumerus -32.6099 15.4828 84.2434
lradius 19.8392
lwrist -15.7062
lhand -14.2029 26.1944
lfingers 7.12502
lthumb 11.9334 55.8342
rfemur 4.46446 1.92538 26.5388
rtibia 30.5011
rfoot -11.0684 -3.6306
rtoes -14.0457
lfemur -23.7329 -2.46305 -20.0613
ltibia 22.5137
lfoot -1.50884 -0.590883
ltoes 2.1272
217
root -9.25051 17.5417 -4.09108 0.881962 -7.06381 -1.88753
lowerback 5.64157 1.97838 0.215394
upperback -0.351393 2.72813 2.13649
thorax -3.62012 1.37242 1.84601
lowerneck -17.175 -3.74452 -8.56136
upperneck 23.4431 -4.16529 5.10844
head 10.6738 -2.06548 2.67575
rclavicle -3.55328e-015 1.51076e-014
rhumerus -24.8013 -10.2521 -81.4182
rradius 33.3646
rwrist 5.96377
rhand -13.4045 6.49913
rfingers 7.12502
rthumb 12.7032 -23.0945
lclavicle -3.55328e-015 1.51076e-014
lhumerus -32.9038 15.5618 84.0223
lradius 19.8303
lwrist -15.7535
lhand -14.1803 26.5095
lfingers 7.12502
lthumb 11.9553 56.1481
rfemur 3.92781 1.51016 26.0281
rtibia 32.4843
rfoot -10.1554 -2.9421
rtoes -14.3899
lfemur -22.9614 -2.08841 -20.5495
ltibia 22.4923
lfoot -1.59992 -0.714363
ltoes 2.15004
